<?xml version="1.0" encoding="utf-8"?>
<!-- Generator: Adobe Illustrator 16.0.0, SVG Export Plug-In . SVG Version: 6.00 Build 0)  -->
<!DOCTYPE svg PUBLIC "-//W3C//DTD SVG 1.1//EN" "http://www.w3.org/Graphics/SVG/1.1/DTD/svg11.dtd">
<svg version="1.1" id="Layer_1" xmlns="http://www.w3.org/2000/svg" xmlns:xlink="http://www.w3.org/1999/xlink" x="0px" y="0px"
	 width="900px" height="818px" viewBox="0 0 900 818" enable-background="new 0 0 900 818" xml:space="preserve">
<g>
	<path d="M272.932,131.691c1.52-1.418,2.702-1.996,3.544-1.728c0.839,0.268,1.331,1.06,1.471,2.378
		c0.137,1.317-0.079,2.964-0.651,4.942c-0.576,1.978-1.469,3.963-2.676,5.961c-1.211,1.999-2.695,3.857-4.452,5.575
		c-1.759,1.723-3.801,2.963-6.125,3.72c-1.846,0.55-3.727,0.683-5.645,0.398c-1.918-0.281-3.896-0.831-5.928-1.648
		c-2.035-0.818-4.121-1.781-6.261-2.887c-2.142-1.107-4.306-2.166-6.49-3.175c-1.351,3.766-2.704,7.432-4.06,11.001
		s-2.718,6.99-4.083,10.267c-2.098,4.964-4.534,9.226-7.31,12.791c-2.776,3.563-5.774,6.351-8.991,8.365
		c-3.219,2.01-6.534,3.218-9.948,3.62c-3.417,0.401-6.763-0.132-10.041-1.594c-2.882-1.279-5.116-3.047-6.705-5.297
		c-1.59-2.251-2.667-4.593-3.232-7.022c-0.568-2.433-0.766-4.8-0.592-7.107c0.169-2.303,0.552-4.153,1.146-5.544
		c0.593-1.39,1.277-2.146,2.059-2.271c0.778-0.121,1.493,0.741,2.138,2.579c0.652,2.037,1.679,3.596,3.085,4.678
		c1.406,1.082,2.944,1.769,4.62,2.059c1.674,0.29,3.435,0.21,5.283-0.242c1.844-0.448,3.534-1.234,5.065-2.363
		c1.342-0.925,2.628-2.089,3.856-3.502c1.229-1.41,2.427-2.94,3.601-4.595c1.171-1.652,2.269-3.35,3.292-5.1
		c1.021-1.743,1.948-3.414,2.779-5.008l4.552-9.4c-3.043-0.197-5.824,0.137-8.343,1c-2.421,0.861-4.181,0.988-5.275,0.386
		c-1.099-0.601-1.591-1.516-1.483-2.744c0.108-1.228,0.774-2.571,2.002-4.03c1.226-1.458,2.856-2.609,4.886-3.459
		c2.225-0.854,4.457-1.465,6.701-1.83c2.24-0.362,4.438-0.529,6.594-0.5c0.547-1.29,1.095-2.557,1.643-3.798
		c0.549-1.243,1.145-2.509,1.789-3.804c-2.811,0.972-5.658,1.528-8.542,1.666c-2.885,0.142-5.612-0.117-8.177-0.771
		c-2.57-0.654-4.878-1.657-6.928-3.012c-2.051-1.355-3.597-2.995-4.636-4.923c-2.072-3.555-3.08-7.518-3.021-11.877
		c0.058-4.359,1.249-8.537,3.57-12.525c2.322-3.99,5.81-7.506,10.466-10.543c4.654-3.035,10.492-5.056,17.512-6.062
		c7.606-1.023,14.354-1.334,20.243-0.934c5.889,0.401,11.15,1.094,15.786,2.072c4.632,0.981,8.779,1.999,12.437,3.06
		c3.655,1.06,7.057,1.759,10.203,2.101c3.143,0.341,6.147,0.076,9.009-0.8c2.86-0.872,5.811-2.827,8.851-5.863
		c1.897-1.918,3.414-2.726,4.551-2.42c1.134,0.309,1.877,1.289,2.223,2.941c0.347,1.655,0.266,3.764-0.241,6.325
		c-0.506,2.563-1.451,5.188-2.836,7.874c-1.384,2.688-3.213,5.246-5.488,7.668c-2.274,2.422-4.958,4.269-8.051,5.543
		c-3.677,1.489-7.161,1.986-10.457,1.505c-3.298-0.483-6.585-1.482-9.865-2.993c-3.279-1.516-6.594-3.319-9.939-5.416
		c-3.349-2.099-6.935-3.992-10.757-5.683c-3.826-1.691-7.93-2.956-12.314-3.798c-4.384-0.84-9.208-0.834-14.47,0.015
		c-3.701,0.706-6.87,1.933-9.507,3.68c-2.639,1.751-4.729,3.749-6.274,6c-1.544,2.252-2.549,4.587-3.011,7.002
		c-0.462,2.412-0.369,4.588,0.28,6.529c0.658,2.231,1.959,3.879,3.903,4.944c1.943,1.065,4.116,1.705,6.523,1.922
		c2.407,0.219,4.898,0.018,7.475-0.604c2.573-0.617,4.873-1.497,6.894-2.641c1.577-2.79,3.21-5.391,4.896-7.794
		c1.686-2.402,3.408-4.464,5.167-6.187c1.756-1.72,3.597-3.1,5.524-4.14c1.925-1.041,3.918-1.542,5.975-1.511
		c2.547,0.017,3.628,0.889,3.242,2.616c-0.386,1.727-2.054,4.007-4.998,6.841c-2.661,2.633-5.254,6.583-7.779,11.852
		c-2.529,5.273-5.06,11.178-7.595,17.723c2.764,0.698,5.454,1.37,8.071,2.022c2.614,0.653,5.125,1.064,7.531,1.232
		c2.405,0.168,4.652,0.023,6.745-0.436C269.029,134.51,271.026,133.417,272.932,131.691L272.932,131.691z"/>
	<path d="M294.268,142.944c-0.67,1.376-1.426,2.843-2.267,4.402c-0.843,1.56-1.666,3.119-2.472,4.675
		c-0.808,1.56-1.598,3.063-2.371,4.513c-0.774,1.45-1.464,2.719-2.071,3.807c-0.605,1.16-1.174,2.301-1.709,3.423
		c-0.536,1.122-0.948,2.133-1.241,3.031c-0.292,0.902-0.341,1.634-0.144,2.197c0.195,0.565,0.721,0.833,1.575,0.807
		c1.352-0.043,2.82-0.445,4.399-1.209c1.58-0.761,3.169-1.774,4.77-3.037c1.599-1.263,3.123-2.699,4.568-4.314
		c1.447-1.615,2.675-3.328,3.687-5.143c0.675-1.159,1.381-1.949,2.118-2.366c0.735-0.414,1.356-0.487,1.864-0.218
		c0.506,0.268,0.81,0.812,0.907,1.628c0.095,0.818-0.192,1.842-0.865,3.075c-1.142,2.247-2.814,4.598-5.017,7.055
		c-2.204,2.458-4.574,4.707-7.11,6.747c-2.54,2.041-5.032,3.741-7.483,5.103c-2.454,1.36-4.533,2.066-6.241,2.121
		c-1.64,0.052-3.144-0.15-4.511-0.606c-1.369-0.454-2.444-1.222-3.227-2.305c-0.783-1.079-1.183-2.456-1.2-4.131
		c-0.019-1.673,0.471-3.703,1.464-6.087c0.995-2.384,1.87-4.532,2.63-6.444c0.759-1.913,1.487-3.682,2.185-5.309
		c0.697-1.626,1.361-3.144,1.995-4.554c0.631-1.41,1.248-2.802,1.846-4.176c0.599-1.371,1.152-2.458,1.662-3.259
		c0.509-0.799,1.059-1.424,1.651-1.87c0.59-0.445,1.275-0.77,2.054-0.974c0.777-0.201,1.733-0.429,2.866-0.679
		c1.133-0.179,2.198-0.317,3.193-0.422c0.995-0.102,1.799-0.039,2.412,0.191c0.612,0.233,0.947,0.685,1.006,1.36
		C295.246,140.651,294.938,141.642,294.268,142.944L294.268,142.944z"/>
	<path d="M306.854,121.696c0.536,1.196,0.609,2.388,0.22,3.575c-0.39,1.188-1.087,2.281-2.089,3.274
		c-1.003,0.995-2.188,1.817-3.557,2.465c-1.37,0.649-2.731,1.047-4.08,1.197c-1.35,0.151-2.583,0.028-3.7-0.364
		c-1.119-0.392-1.907-1.15-2.371-2.277c-0.536-1.123-0.589-2.281-0.163-3.47c0.425-1.189,1.121-2.28,2.088-3.274
		c0.966-0.992,2.115-1.848,3.447-2.569c1.331-0.717,2.652-1.168,3.967-1.354c1.312-0.182,2.526-0.061,3.646,0.366
		C305.382,119.695,306.245,120.504,306.854,121.696L306.854,121.696z"/>
	<path d="M314.276,140.066c1.51,0.38,2.813,0.499,3.915,0.359c1.1-0.142,2.07-0.477,2.909-1.002c0.839-0.523,1.567-1.172,2.184-1.94
		c0.618-0.766,1.196-1.588,1.739-2.461c0.615-0.874,1.368-1.254,2.263-1.14c0.895,0.116,1.692,0.535,2.394,1.26
		c0.699,0.726,1.191,1.656,1.477,2.788s0.125,2.278-0.479,3.437c-0.07,0.074-0.102,0.147-0.1,0.217
		c-0.405,0.726-1.027,1.92-1.865,3.588c-0.839,1.667-1.728,3.406-2.669,5.215c-0.941,1.812-1.812,3.551-2.615,5.215
		c-0.803,1.666-1.372,2.862-1.704,3.582c-0.536,1.158-1.069,2.316-1.602,3.474c-0.535,1.158-0.946,2.186-1.238,3.085
		c-0.293,0.902-0.361,1.616-0.2,2.145c0.158,0.53,0.701,0.781,1.628,0.751c1.351-0.043,2.819-0.446,4.398-1.209
		c1.58-0.76,3.168-1.774,4.769-3.036c1.6-1.264,3.104-2.701,4.516-4.314c1.409-1.613,2.621-3.325,3.632-5.14
		c0.675-1.162,1.382-1.951,2.118-2.366c0.735-0.417,1.356-0.489,1.864-0.22c0.506,0.27,0.809,0.814,0.907,1.629
		c0.096,0.818-0.156,1.843-0.759,3.071c-1.142,2.247-2.742,4.597-4.803,7.049c-2.061,2.454-4.307,4.699-6.736,6.735
		c-2.432,2.039-4.908,3.736-7.431,5.1c-2.523,1.363-4.818,2.077-6.882,2.143c-3.418,0.108-5.424-1.325-6.017-4.301
		c-0.593-2.975,0.419-7.035,3.037-12.178c1.145-2.103,2.293-4.118,3.444-6.044c1.151-1.925,2.27-3.723,3.358-5.398
		c-1.814,1.271-3.728,2.151-5.744,2.641c-2.016,0.492-3.885,0.551-5.607,0.177c-0.938,1.954-2.022,3.701-3.256,5.236
		c-0.963,1.172-1.881,1.967-2.759,2.386c-0.878,0.42-1.551,0.495-2.025,0.224c-0.471-0.27-0.684-0.815-0.64-1.636
		c0.046-0.821,0.477-1.852,1.292-3.09c0.545-0.801,1.071-1.654,1.576-2.563c0.507-0.905,0.994-1.83,1.464-2.771
		c-1.176-1.102-1.878-2.436-2.105-3.997c-0.227-1.559-0.153-3.185,0.221-4.872c0.374-1.687,1.018-3.329,1.93-4.927
		c0.912-1.596,1.954-2.982,3.13-4.162c1.174-1.176,2.411-2.017,3.715-2.522c1.304-0.503,2.532-0.524,3.687-0.062
		c0.866,0.329,1.381,0.848,1.546,1.553c0.164,0.708,0.171,1.509,0.022,2.406c-0.149,0.895-0.423,1.848-0.818,2.859
		C314.961,138.05,314.601,139.061,314.276,140.066L314.276,140.066z"/>
	<path d="M348.262,166.686c1.31-1.396,2.163-3.116,2.564-5.16c0.397-2.045,0.599-4.135,0.604-6.275
		c0.003-2.139-0.043-4.169-0.14-6.09c-0.097-1.922,0.05-3.493,0.439-4.718c-0.893,1.098-1.818,2.268-2.776,3.509
		c-0.822,1.026-1.712,2.21-2.667,3.558c-0.956,1.352-1.877,2.645-2.765,3.885c-1.978,2.84-3.006,5.226-3.088,7.153
		c-0.083,1.928,0.283,3.359,1.098,4.297c0.813,0.935,1.897,1.401,3.251,1.392C346.136,168.233,347.295,167.716,348.262,166.686
		L348.262,166.686z M359.601,136.389c1.638-0.052,2.939-0.041,3.904,0.037c0.965,0.078,1.682,0.234,2.153,0.467
		c0.471,0.236,0.783,0.546,0.939,0.931c0.154,0.388,0.241,0.831,0.256,1.33c0.034,1.068-0.196,1.752-0.685,2.053
		c-0.489,0.3-1.016,0.567-1.578,0.799c-0.564,0.23-1.048,0.637-1.459,1.22c-0.409,0.585-0.517,1.693-0.323,3.326
		c0.469,3.55,0.576,6.949,0.323,10.202c-0.254,3.25-0.908,6.247-1.96,8.989c1.487-0.331,3.001-0.879,4.546-1.641
		c1.543-0.759,3.047-1.664,4.512-2.709c1.464-1.043,2.816-2.227,4.058-3.55c1.241-1.322,2.268-2.709,3.076-4.16
		c0.676-1.161,1.382-1.95,2.118-2.366c0.735-0.415,1.356-0.488,1.864-0.22c0.506,0.27,0.81,0.813,0.907,1.629
		c0.095,0.817-0.193,1.844-0.865,3.076c-1.41,2.754-3.152,5.143-5.226,7.168c-2.076,2.027-4.284,3.771-6.625,5.235
		c-2.343,1.464-4.712,2.626-7.107,3.485c-2.396,0.861-4.623,1.466-6.679,1.814c-2.921,2.303-6.553,3.523-10.896,3.661
		c-2.635,0.083-4.88-0.47-6.735-1.658c-1.856-1.188-3.171-2.804-3.95-4.848c-0.776-2.042-0.923-4.425-0.44-7.151
		c0.486-2.723,1.786-5.578,3.9-8.568c2.25-3.208,4.108-5.885,5.574-8.035c1.464-2.149,2.709-3.899,3.737-5.252
		c1.026-1.35,1.938-2.375,2.735-3.081c0.798-0.701,1.637-1.208,2.519-1.522c0.88-0.311,1.89-0.487,3.031-0.522
		C356.36,136.491,357.82,136.445,359.601,136.389L359.601,136.389z"/>
	<path d="M410.015,117.795c3.616-0.613,6.966-1.165,10.051-1.654c3.087-0.489,5.371-0.936,6.855-1.339
		c1.131-0.25,1.865-0.183,2.197,0.197c0.333,0.383,0.369,0.969,0.11,1.76c-0.262,0.795-0.768,1.666-1.521,2.616
		c-0.755,0.95-1.634,1.867-2.64,2.757c-1.006,0.886-2.052,1.633-3.137,2.236c-1.087,0.605-2.092,0.92-3.017,0.95l-14.74,0.465
		c-1.702,2.55-3.418,5.188-5.15,7.916c-1.731,2.728-3.276,5.183-4.633,7.365c-1.492,2.397-2.802,4.953-3.927,7.66
		c-1.127,2.709-1.992,5.214-2.596,7.514c-0.606,2.302-0.934,4.289-0.987,5.964c-0.054,1.678,0.246,2.719,0.9,3.127
		c0.873,0.542,1.999,0.65,3.378,0.32c1.38-0.327,2.89-1.035,4.531-2.121c1.64-1.085,3.342-2.529,5.103-4.331
		c1.761-1.802,3.457-3.941,5.089-6.416c0.676-1.161,1.399-1.933,2.172-2.314c0.772-0.382,1.411-0.454,1.918-0.222
		c0.505,0.235,0.79,0.762,0.852,1.578c0.062,0.819-0.245,1.845-0.918,3.078c-1.618,2.975-3.473,5.722-5.566,8.248
		c-2.095,2.525-4.307,4.717-6.635,6.571c-2.331,1.858-4.725,3.342-7.184,4.451c-2.461,1.112-4.864,1.704-7.214,1.779
		c-2.493,0.078-4.532-0.729-6.119-2.428c-1.585-1.696-2.379-4.255-2.38-7.675c-0.002-3.422,0.915-7.71,2.747-12.865
		c1.832-5.153,4.956-11.188,9.373-18.1c0.746-1.162,1.578-2.507,2.492-4.034c0.915-1.525,1.916-3.088,3.006-4.693l-9.934,0.314
		c-0.855,0.028-1.31-0.208-1.359-0.705c-0.052-0.495,0.126-1.073,0.533-1.728c0.407-0.653,1.011-1.26,1.814-1.821
		c0.8-0.559,1.664-0.89,2.587-0.991c2.696-0.37,5.508-1.064,8.435-2.083c2.925-1.019,5.302-1.95,7.129-2.792
		c1.546-0.691,3.146-1.364,4.801-2.023c1.653-0.658,3.03-1.059,4.132-1.2c1.1-0.143,1.729,0.07,1.891,0.635
		c0.16,0.565-0.518,1.727-2.029,3.485L410.015,117.795L410.015,117.795z"/>
	<path d="M195.109,204.881c1.716,1.496,3.782,2.546,6.2,3.148c2.416,0.604,5.07,0.84,7.963,0.708
		c2.891-0.13,5.946-0.576,9.162-1.339c3.215-0.76,6.475-1.798,9.776-3.113c6.564-14.267,12.947-20.109,19.148-17.521
		c1.152,0.498,1.982,1.332,2.487,2.505c0.503,1.174,0.668,2.585,0.494,4.232c-0.176,1.648-0.784,3.464-1.824,5.444
		c-1.042,1.983-2.53,4.031-4.467,6.143c-2.006,2.208-4.216,4.443-6.63,6.708c-1.258,3.346-2.461,6.931-3.605,10.758
		c-1.146,3.83-2.3,7.74-3.463,11.735c0.376,0.861,0.796,1.754,1.266,2.685c0.467,0.929,0.977,1.853,1.527,2.771
		c4.673-2.18,9.157-5.351,13.457-9.516c4.298-4.163,8.017-8.595,11.157-13.296c3.138-4.701,5.499-9.329,7.079-13.886
		c1.58-4.555,1.946-8.31,1.098-11.264c-0.482-1.593-0.405-2.768,0.233-3.528c0.638-0.758,1.543-1.099,2.721-1.021
		c1.175,0.077,2.526,0.504,4.054,1.278c1.527,0.775,2.939,1.9,4.236,3.373c1.296,1.476,2.329,3.278,3.1,5.412
		c0.767,2.133,1.052,4.504,0.852,7.112c-0.314,3.54-1.845,7.299-4.59,11.275c-2.746,3.979-6.213,7.855-10.403,11.627
		c-4.188,3.775-8.837,7.26-13.942,10.459c-5.105,3.201-10.139,5.747-15.104,7.635c2.455,3.135,5.328,6.292,8.621,9.47
		c3.292,3.18,6.784,6.163,10.478,8.948c3.692,2.788,7.499,5.351,11.417,7.689c3.917,2.337,7.737,4.275,11.455,5.812
		c3.718,1.535,7.239,2.579,10.564,3.135c3.325,0.552,6.307,0.47,8.947-0.248c1.837-0.518,3.061-0.406,3.668,0.338
		c0.607,0.742,0.653,1.776,0.141,3.099c-0.514,1.323-1.481,2.815-2.901,4.479c-1.421,1.663-3.217,3.172-5.389,4.53
		c-2.172,1.356-4.685,2.389-7.533,3.097c-2.85,0.708-5.899,0.758-9.148,0.152c-3.575-0.559-7.038-1.759-10.382-3.597
		c-3.348-1.841-6.583-4.071-9.711-6.69c-3.128-2.622-6.112-5.532-8.95-8.736c-2.839-3.204-5.461-6.481-7.863-9.831
		c-2.404-3.348-4.574-6.67-6.51-9.965c-1.938-3.292-3.608-6.334-5.014-9.124l-2.565,0.375c-1.578,5.72-3.204,11.096-4.88,16.123
		c-1.678,5.029-3.459,9.342-5.344,12.945c-2.604,4.955-5.74,8.824-9.408,11.606c-3.669,2.782-7.461,4.583-11.375,5.405
		c-3.916,0.823-7.683,0.789-11.305-0.094c-3.623-0.886-6.669-2.519-9.139-4.902c-2.469-2.384-4.121-5.43-4.953-9.133
		c-0.834-3.703-0.391-7.928,1.329-12.671c0.772-2.109,1.794-3.796,3.065-5.064c1.27-1.266,2.46-2.085,3.572-2.457
		c1.109-0.369,1.994-0.291,2.654,0.236c0.658,0.527,0.77,1.572,0.333,3.132c-0.554,1.912-0.527,3.801,0.079,5.665
		c0.604,1.868,1.568,3.473,2.887,4.818c1.32,1.347,2.904,2.364,4.751,3.049c1.847,0.686,3.802,0.836,5.867,0.453
		c2.065-0.385,4.101-1.39,6.11-3.014c2.009-1.622,3.815-4.051,5.424-7.281c1.224-2.424,2.462-5.35,3.708-8.776
		c1.246-3.426,2.479-7.078,3.701-10.959c1.221-3.878,2.482-7.911,3.785-12.094c1.301-4.182,2.608-8.323,3.923-12.427
		c-2.895,1.256-5.846,2.124-8.852,2.604c-3.008,0.482-6.124,0.501-9.349,0.057c-2.633-0.364-4.827-1.291-6.583-2.781
		c-1.758-1.491-3.147-3.177-4.171-5.067c-1.025-1.887-1.68-3.809-1.965-5.765c-0.286-1.954-0.283-3.639,0.009-5.054
		c0.292-1.416,0.858-2.372,1.702-2.869C192.832,203.529,193.871,203.814,195.109,204.881L195.109,204.881z"/>
	<path d="M304.088,215.211c-0.659,2.09-1.419,4.325-2.281,6.711c-0.864,2.387-1.7,4.766-2.514,7.141
		c-0.812,2.379-1.615,4.672-2.405,6.89c-0.79,2.217-1.499,4.158-2.129,5.828c-0.612,1.77-1.179,3.505-1.698,5.205
		c-0.522,1.704-0.893,3.221-1.117,4.557c-0.224,1.337-0.138,2.384,0.259,3.142c0.395,0.757,1.198,1.026,2.401,0.806
		c1.905-0.345,3.897-1.224,5.973-2.639c2.076-1.412,4.113-3.179,6.112-5.308c1.999-2.124,3.852-4.479,5.558-7.071
		c1.708-2.587,3.086-5.274,4.137-8.058c0.71-1.786,1.545-3.052,2.498-3.794c0.953-0.744,1.817-0.979,2.593-0.707
		c0.773,0.276,1.318,0.981,1.628,2.116c0.307,1.136,0.116,2.647-0.578,4.536c-1.143,3.422-3.014,7.102-5.614,11.046
		c-2.602,3.947-5.483,7.63-8.645,11.054c-3.163,3.425-6.337,6.357-9.521,8.802c-3.186,2.443-5.981,3.884-8.389,4.319
		c-2.31,0.42-4.479,0.452-6.513,0.095c-2.032-0.356-3.719-1.218-5.056-2.582c-1.335-1.364-2.191-3.229-2.57-5.598
		c-0.376-2.366-0.113-5.342,0.79-8.928c0.905-3.585,1.694-6.81,2.364-9.681c0.672-2.867,1.329-5.528,1.973-7.975
		c0.645-2.451,1.264-4.739,1.864-6.869c0.597-2.13,1.176-4.23,1.732-6.302c0.557-2.068,1.112-3.724,1.664-4.964
		c0.553-1.24,1.201-2.241,1.945-2.997c0.742-0.757,1.643-1.36,2.702-1.812c1.058-0.45,2.362-0.974,3.915-1.565
		c1.567-0.491,3.045-0.916,4.434-1.271c1.385-0.354,2.538-0.434,3.455-0.239c0.915,0.2,1.486,0.768,1.709,1.713
		C304.989,211.758,304.762,213.223,304.088,215.211L304.088,215.211z"/>
	<path d="M362.784,228.505c-0.732,1.689-1.473,3.455-2.226,5.3c-0.753,1.848-1.279,3.525-1.574,5.029
		c-0.299,1.506-0.315,2.701-0.05,3.586c0.264,0.886,0.998,1.217,2.203,1c1.906-0.346,3.898-1.226,5.974-2.641
		c2.076-1.412,4.112-3.179,6.112-5.307c1.997-2.123,3.852-4.48,5.558-7.07c1.707-2.59,3.086-5.277,4.135-8.059
		c0.712-1.787,1.546-3.052,2.498-3.795c0.955-0.744,1.819-0.978,2.594-0.706c0.774,0.275,1.317,0.981,1.627,2.116
		c0.309,1.138,0.116,2.647-0.577,4.536c-1.142,3.422-3.013,7.102-5.613,11.047c-2.603,3.946-5.458,7.625-8.57,11.04
		c-3.112,3.416-6.287,6.349-9.52,8.802c-3.235,2.453-6.007,3.889-8.314,4.305c-2.408,0.439-4.681,0.489-6.814,0.15
		c-2.135-0.339-3.921-1.18-5.356-2.527c-1.438-1.346-2.394-3.194-2.873-5.543c-0.478-2.349-0.264-5.317,0.64-8.901
		c0.749-2.726,1.789-5.845,3.124-9.352c1.331-3.507,2.455-6.742,3.369-9.706c0.913-2.965,1.331-5.374,1.254-7.226
		c-0.078-1.851-1.159-2.537-3.249-2.052c-1.689,0.408-3.64,2.213-5.859,5.416c-2.218,3.201-4.444,7.078-6.675,11.627
		c-2.232,4.552-4.27,9.328-6.107,14.326c-1.84,4.997-3.227,9.501-4.158,13.502c-0.604,2.39-1.15,4.095-1.637,5.118
		c-0.49,1.022-1.234,1.624-2.237,1.805l-3.764,0.683c-2.409,0.437-4.161,0.342-5.262-0.29c-1.097-0.629-1.455-2.168-1.071-4.625
		c0.385-2.453,0.746-4.746,1.083-6.883c0.339-2.134,0.802-4.444,1.384-6.937c0.806-3.567,1.568-6.788,2.289-9.667
		c0.722-2.875,1.404-5.54,2.049-7.989c0.643-2.449,1.289-4.743,1.938-6.883c0.647-2.139,1.252-4.243,1.81-6.315
		c0.556-2.068,1.21-3.741,1.964-5.019c0.753-1.277,1.622-2.34,2.609-3.195c0.984-0.852,2.081-1.518,3.291-1.996
		c1.209-0.478,2.646-0.971,4.317-1.483c2.573-0.674,4.053-0.372,4.44,0.903c0.387,1.28,0.12,3.661-0.803,7.144
		c2.418-3.238,4.978-5.982,7.679-8.235c2.702-2.252,5.606-3.662,8.718-4.225c3.813-0.692,6.858-0.468,9.139,0.673
		c2.282,1.142,3.814,3.017,4.597,5.619c0.784,2.605,0.83,5.862,0.14,9.771C366.32,219.288,364.91,223.662,362.784,228.505
		L362.784,228.505z"/>
	<path d="M403.487,234.334c4.214-0.765,7.546-3.83,9.993-9.199c2.447-5.366,4.668-12.531,6.671-21.5l-1.464-0.356
		c-1.816-0.292-3.795-0.062-5.938,0.687c-2.145,0.754-4.236,1.936-6.275,3.549c-2.039,1.614-3.936,3.591-5.688,5.93
		c-1.751,2.339-3.152,4.902-4.203,7.682c-0.694,1.891-1.062,3.717-1.103,5.488c-0.043,1.771,0.205,3.28,0.743,4.527
		c0.539,1.25,1.431,2.178,2.681,2.78C400.152,234.528,401.682,234.663,403.487,234.334L403.487,234.334z M390.081,265.842
		c2.808-0.51,5.844-2.2,9.108-5.072c3.261-2.874,6.357-7.374,9.288-13.501c-3.02-0.073-6.055,0.192-9.106,0.795
		c-3.053,0.609-5.851,1.607-8.396,3.003c-3.01,1.685-5.177,3.451-6.5,5.299c-1.323,1.846-1.948,3.542-1.876,5.082
		c0.072,1.542,0.761,2.765,2.064,3.669C385.967,266.019,387.773,266.262,390.081,265.842L390.081,265.842z M385.242,214.323
		c2.282-4.557,5.032-8.531,8.254-11.914c3.221-3.384,6.628-6.023,10.225-7.919c3.594-1.896,7.184-2.961,10.77-3.198
		c3.585-0.236,6.923,0.452,10.016,2.071c0.5-1.232,0.99-2.253,1.464-3.066c0.475-0.811,1.052-1.486,1.733-2.024
		c0.679-0.536,1.499-1.022,2.457-1.457c0.956-0.43,2.118-0.875,3.489-1.333c1.567-0.49,3.046-0.915,4.433-1.27
		c1.387-0.354,2.513-0.431,3.381-0.226c0.867,0.206,1.435,0.777,1.709,1.712c0.271,0.936,0.071,2.396-0.604,4.385
		c-0.658,2.089-1.393,4.322-2.206,6.697c-0.812,2.378-1.65,4.756-2.512,7.143c-0.864,2.387-1.691,4.686-2.479,6.901
		c-0.792,2.219-1.552,4.167-2.281,5.856c-1.069,2.682-2.029,5.525-2.883,8.529c-0.853,3.009-1.72,6.091-2.597,9.257
		c5.038-3.092,9.73-6.792,14.078-11.105c4.349-4.311,8.138-9.562,11.369-15.747c0.867-1.503,1.828-2.637,2.882-3.398
		c1.054-0.76,1.985-1.061,2.792-0.895c0.808,0.163,1.33,0.769,1.574,1.813c0.238,1.043-0.077,2.578-0.953,4.602
		c-1.8,4.371-3.987,8.318-6.559,11.841c-2.576,3.527-5.387,6.73-8.44,9.617c-3.052,2.887-6.281,5.519-9.684,7.898
		c-3.403,2.38-6.854,4.509-10.347,6.387c-1.881,5.627-4.293,10.911-7.23,15.85c-2.94,4.936-7.037,8.918-12.292,11.948
		c-4.508,2.58-8.688,4.115-12.535,4.606c-3.851,0.49-7.206,0.269-10.072-0.66c-2.863-0.934-5.188-2.456-6.97-4.566
		c-1.782-2.113-2.859-4.482-3.233-7.11c-0.373-2.628,0.017-5.341,1.166-8.14c1.151-2.802,3.26-5.464,6.325-7.989
		c0.997-0.804,2.052-1.539,3.175-2.21c1.123-0.67,2.292-1.371,3.503-2.113c-2.861-3.212-4.504-7.55-4.927-13.02
		C380.812,226.608,382.148,220.691,385.242,214.323L385.242,214.323z"/>
	<path d="M312.63,188.437c-0.6,0-1.084,0.485-1.084,1.084c0,0.36,0.177,0.677,0.447,0.874l-5.104,6.46v-6.259
		c0.555-0.046,0.993-0.508,0.993-1.075c0-0.599-0.485-1.084-1.084-1.084s-1.083,0.485-1.083,1.084c0,0.411,0.231,0.766,0.569,0.949
		l-3.303,6.142l-2.047-6.084c0.403-0.159,0.688-0.549,0.688-1.007c0-0.599-0.486-1.084-1.086-1.084
		c-0.598,0-1.083,0.485-1.083,1.084c0,0.457,0.286,0.848,0.687,1.007l-2.045,6.084l-3.343-6.217
		c0.327-0.185,0.549-0.534,0.549-0.937c0-0.597-0.486-1.082-1.083-1.082c-0.599,0-1.084,0.485-1.084,1.082
		c0,0.588,0.47,1.066,1.054,1.082v6.315l-5.104-6.46c0.27-0.197,0.447-0.515,0.447-0.874c0-0.599-0.486-1.084-1.083-1.084
		c-0.601,0-1.084,0.485-1.084,1.084c0,0.599,0.483,1.085,1.084,1.085c0.116,0,0.226-0.022,0.331-0.057l3.193,9.273l0.873,2.53h7.693
		h7.696l0.872-2.53l3.195-9.273c0.105,0.035,0.214,0.057,0.331,0.057c0.599,0,1.083-0.486,1.083-1.085
		C313.713,188.922,313.229,188.437,312.63,188.437L312.63,188.437z"/>
	<polygon points="299.238,304.251 305.771,304.615 305.608,307.523 302.616,307.357 302.548,308.587 305.49,308.75 305.336,311.51 
		302.395,311.346 302.323,312.626 305.432,312.799 305.27,315.707 298.621,315.337 299.238,304.251 	"/>
	<path d="M309.799,312.325c0.246,0.071,0.503,0.125,0.771,0.161c0.224,0.049,0.477,0.085,0.761,0.11
		c0.284,0.024,0.569,0.033,0.858,0.024c0.511-0.016,0.76-0.211,0.749-0.589c-0.005-0.145-0.087-0.29-0.247-0.434
		c-0.16-0.146-0.362-0.306-0.606-0.482c-0.244-0.175-0.504-0.37-0.784-0.584c-0.279-0.213-0.542-0.46-0.789-0.742
		c-0.248-0.281-0.454-0.6-0.62-0.955c-0.167-0.357-0.256-0.768-0.271-1.233c-0.015-0.522,0.064-0.984,0.241-1.39
		c0.177-0.406,0.428-0.747,0.752-1.023c0.325-0.275,0.71-0.489,1.155-0.643c0.445-0.152,0.923-0.236,1.433-0.251
		c0.266-0.007,0.533-0.002,0.8,0.018c0.268,0.019,0.506,0.038,0.718,0.054c0.245,0.025,0.484,0.052,0.718,0.078l0.094,3.112
		c-0.089-0.008-0.189-0.016-0.3-0.024c-0.089-0.009-0.19-0.017-0.301-0.024c-0.111-0.007-0.228-0.01-0.35-0.006
		c-0.066,0.002-0.149,0.007-0.25,0.016c-0.1,0.009-0.193,0.026-0.281,0.05c-0.088,0.025-0.165,0.066-0.229,0.124
		c-0.065,0.058-0.096,0.136-0.093,0.236c0.003,0.089,0.081,0.197,0.234,0.325c0.154,0.129,0.342,0.28,0.563,0.45
		c0.222,0.171,0.466,0.369,0.734,0.594c0.267,0.225,0.515,0.484,0.74,0.777c0.226,0.293,0.418,0.626,0.58,0.999
		c0.161,0.372,0.249,0.792,0.262,1.258c0.015,0.488-0.049,0.948-0.191,1.379c-0.143,0.432-0.372,0.812-0.69,1.136
		c-0.318,0.327-0.73,0.589-1.234,0.787c-0.505,0.199-1.107,0.308-1.805,0.33c-0.422,0.013-0.814,0.005-1.175-0.023
		c-0.362-0.028-0.683-0.066-0.961-0.113c-0.324-0.046-0.619-0.104-0.888-0.173L309.799,312.325L309.799,312.325z"/>
	<polygon points="322.133,306.893 320.1,307.132 319.76,304.239 327.465,303.333 327.805,306.227 325.771,306.467 326.728,314.601 
		323.09,315.029 322.133,306.893 	"/>
	<path d="M332.583,308.05c-0.055-0.271-0.056-0.541-0.001-0.806c0.054-0.266,0.154-0.509,0.302-0.732s0.331-0.409,0.549-0.56
		c0.218-0.153,0.469-0.256,0.752-0.313c0.272-0.055,0.541-0.056,0.807-0.002c0.265,0.054,0.509,0.155,0.732,0.302
		c0.222,0.148,0.409,0.333,0.562,0.558c0.153,0.223,0.257,0.471,0.312,0.744c0.057,0.283,0.058,0.554,0.003,0.814
		c-0.055,0.261-0.156,0.502-0.304,0.724c-0.147,0.222-0.333,0.41-0.557,0.563c-0.224,0.152-0.472,0.256-0.744,0.311
		c-0.283,0.057-0.555,0.058-0.814,0.003c-0.26-0.055-0.501-0.156-0.724-0.304s-0.409-0.331-0.561-0.549
		C332.744,308.584,332.64,308.333,332.583,308.05L332.583,308.05z"/>
	<polygon points="341.72,304.745 339.808,303.462 341.458,300.325 344.023,299.611 347,310.309 343.536,311.273 341.72,304.745 	"/>
	<path d="M354.041,300.45c-0.1-0.27-0.275-0.463-0.524-0.578c-0.25-0.114-0.505-0.124-0.765-0.028
		c-0.261,0.096-0.448,0.269-0.562,0.519c-0.115,0.25-0.125,0.504-0.027,0.764c0.096,0.26,0.269,0.448,0.518,0.563
		c0.25,0.115,0.504,0.123,0.765,0.027c0.25-0.092,0.435-0.264,0.555-0.515S354.133,300.7,354.041,300.45L354.041,300.45z
		 M357.145,299.39c0.162,0.438,0.271,0.885,0.329,1.343c0.057,0.458,0.08,0.911,0.068,1.359c-0.012,0.448-0.051,0.886-0.118,1.312
		c-0.067,0.428-0.149,0.831-0.245,1.209c-0.227,0.889-0.536,1.749-0.927,2.58l-3.778,1.398c0.15-0.329,0.301-0.691,0.449-1.09
		c0.123-0.34,0.245-0.735,0.369-1.184c0.125-0.448,0.227-0.93,0.309-1.445c-0.503,0.08-0.991,0.074-1.463-0.018
		c-0.472-0.092-0.907-0.252-1.306-0.485c-0.399-0.231-0.75-0.532-1.054-0.906c-0.304-0.373-0.543-0.798-0.721-1.276
		c-0.2-0.542-0.29-1.088-0.27-1.641c0.021-0.552,0.139-1.072,0.355-1.56c0.215-0.488,0.525-0.922,0.929-1.302
		c0.404-0.38,0.887-0.674,1.449-0.883c0.583-0.215,1.161-0.314,1.736-0.296c0.575,0.018,1.116,0.144,1.622,0.376
		c0.506,0.233,0.956,0.56,1.35,0.982C356.619,298.288,356.926,298.796,357.145,299.39L357.145,299.39z"/>
	<path d="M364.557,299.508c0.111,0.231,0.281,0.386,0.51,0.466c0.23,0.081,0.46,0.066,0.69-0.044c0.229-0.111,0.385-0.28,0.466-0.51
		c0.081-0.229,0.066-0.459-0.044-0.689c-0.11-0.23-0.281-0.385-0.51-0.466c-0.229-0.081-0.459-0.066-0.69,0.044
		c-0.229,0.111-0.385,0.281-0.466,0.51C364.432,299.048,364.447,299.278,364.557,299.508L364.557,299.508z M363.1,295.702
		c0.068,0.141,0.175,0.236,0.323,0.288c0.148,0.053,0.291,0.045,0.432-0.022c0.14-0.067,0.235-0.175,0.288-0.323
		c0.052-0.147,0.045-0.292-0.022-0.433c-0.067-0.139-0.174-0.235-0.323-0.288c-0.148-0.052-0.292-0.044-0.432,0.023
		s-0.236,0.175-0.288,0.323C363.024,295.418,363.033,295.562,363.1,295.702L363.1,295.702z M367.154,302.841
		c-0.51,0.246-1.031,0.39-1.563,0.437c-0.532,0.046-1.04-0.005-1.524-0.156c-0.484-0.148-0.925-0.389-1.325-0.72
		c-0.399-0.332-0.721-0.753-0.966-1.263c-0.197-0.41-0.312-0.798-0.346-1.164c-0.034-0.365-0.031-0.687,0.008-0.964
		c0.049-0.331,0.14-0.633,0.268-0.904c-0.167-0.067-0.33-0.162-0.487-0.283c-0.137-0.106-0.282-0.246-0.433-0.42
		c-0.151-0.173-0.289-0.39-0.414-0.65c-0.196-0.41-0.298-0.833-0.303-1.268c-0.005-0.434,0.072-0.85,0.232-1.247
		c0.16-0.397,0.395-0.762,0.703-1.094c0.308-0.333,0.678-0.603,1.108-0.809c0.43-0.207,0.872-0.326,1.323-0.359
		c0.452-0.032,0.883,0.014,1.294,0.137c0.409,0.123,0.782,0.323,1.118,0.599c0.336,0.276,0.602,0.619,0.799,1.029
		c0.125,0.261,0.206,0.505,0.241,0.733c0.037,0.23,0.053,0.432,0.05,0.604c-0.002,0.199-0.026,0.382-0.068,0.55
		c0.282,0.074,0.568,0.196,0.858,0.365c0.241,0.143,0.496,0.34,0.765,0.592c0.269,0.253,0.502,0.584,0.699,0.995
		c0.245,0.51,0.372,1.025,0.381,1.543c0.008,0.519-0.08,1.014-0.267,1.485c-0.186,0.472-0.463,0.9-0.833,1.286
		C368.104,302.281,367.665,302.597,367.154,302.841L367.154,302.841z"/>
	<path d="M374.763,294.215l1.257-0.753l-1.267-2.114L374.763,294.215L374.763,294.215z M372.654,286.939l2.414-1.446l3.765,6.284
		l0.571-0.343l1.147,1.914l-0.571,0.342l0.795,1.328l-2.813,1.685l-0.796-1.328l-3.484,2.088l-0.967-1.614L372.654,286.939
		L372.654,286.939z"/>
</g>
<g>
	<path d="M652.926,277.696c-0.13-0.046-0.256-0.039-0.379,0.021c-0.123,0.059-0.208,0.154-0.253,0.283
		c-0.047,0.131-0.039,0.258,0.02,0.38c0.06,0.124,0.153,0.208,0.284,0.253c0.13,0.046,0.256,0.04,0.379-0.021
		c0.123-0.059,0.207-0.153,0.253-0.284c0.046-0.129,0.039-0.256-0.02-0.379C653.15,277.827,653.056,277.742,652.926,277.696
		L652.926,277.696z"/>
	<path d="M654.569,280.63c-0.202-0.071-0.404-0.058-0.606,0.039c-0.201,0.097-0.338,0.247-0.408,0.447
		c-0.071,0.203-0.059,0.404,0.039,0.606c0.097,0.203,0.246,0.338,0.447,0.409c0.202,0.071,0.404,0.058,0.605-0.039
		c0.202-0.098,0.339-0.247,0.41-0.448c0.07-0.202,0.058-0.403-0.039-0.605C654.92,280.837,654.771,280.701,654.569,280.63
		L654.569,280.63z"/>
	<path d="M643.897,282.042c-0.22-0.101-0.444-0.109-0.673-0.024c-0.228,0.084-0.393,0.236-0.493,0.455
		c-0.101,0.22-0.108,0.443-0.024,0.671c0.085,0.229,0.236,0.394,0.456,0.495c0.219,0.101,0.442,0.108,0.671,0.024
		c0.22-0.082,0.382-0.231,0.487-0.453c0.106-0.22,0.117-0.44,0.036-0.66C644.27,282.312,644.115,282.143,643.897,282.042
		L643.897,282.042z"/>
	<polygon points="662.556,277.074 663.66,276.413 662.548,274.556 662.556,277.074 	"/>
	<path d="M671.084,243.834c-1.161,1.621-1.71,3.11-1.647,4.462c0.063,1.354,0.669,2.428,1.812,3.222
		c1.146,0.793,2.732,1.006,4.759,0.638c2.466-0.448,5.132-1.932,7.999-4.455c2.864-2.524,5.584-6.476,8.157-11.857
		c-2.652-0.065-5.317,0.168-7.997,0.698c-2.682,0.535-5.139,1.412-7.374,2.637C674.149,240.66,672.247,242.211,671.084,243.834
		L671.084,243.834z"/>
	<path d="M696.558,216.408c2.149-4.712,4.1-11.005,5.858-18.88l-1.286-0.313c-1.595-0.257-3.333-0.055-5.215,0.603
		c-1.884,0.663-3.721,1.701-5.511,3.117c-1.791,1.417-3.457,3.154-4.995,5.208c-1.538,2.054-2.769,4.305-3.691,6.746
		c-0.609,1.661-0.933,3.265-0.969,4.82c-0.038,1.556,0.181,2.88,0.653,3.976c0.473,1.098,1.256,1.913,2.354,2.441
		c1.096,0.531,2.439,0.649,4.025,0.361C691.482,223.815,694.408,221.123,696.558,216.408L696.558,216.408z"/>
	<path d="M639.89,148.625c-0.722,0.902-1.504,1.942-2.342,3.125c-0.84,1.188-1.649,2.322-2.429,3.412
		c-1.736,2.496-2.641,4.59-2.712,6.282c-0.072,1.693,0.249,2.951,0.965,3.774c0.714,0.821,1.666,1.23,2.855,1.223
		c1.188-0.004,2.206-0.458,3.056-1.363c1.15-1.226,1.899-2.737,2.252-4.532c0.349-1.796,0.525-3.631,0.529-5.51
		c0.003-1.878-0.038-3.661-0.122-5.348c-0.086-1.688,0.044-3.067,0.386-4.143C641.544,146.509,640.731,147.536,639.89,148.625
		L639.89,148.625z"/>
	<path d="M665.365,279.259l-0.698-1.166l-3.061,1.833l-0.85-1.417l-0.053-7.826l2.12-1.27l3.306,5.519l0.502-0.301l1.007,1.68
		l-0.501,0.301l0.698,1.167L665.365,279.259L665.365,279.259z M657.764,282.688c-0.164,0.415-0.408,0.791-0.732,1.129
		c-0.323,0.339-0.709,0.617-1.156,0.832c-0.449,0.216-0.906,0.343-1.373,0.383c-0.468,0.041-0.914-0.004-1.339-0.136
		c-0.426-0.13-0.813-0.342-1.163-0.633c-0.352-0.291-0.634-0.661-0.849-1.109c-0.173-0.36-0.275-0.701-0.305-1.022
		c-0.029-0.321-0.027-0.603,0.008-0.847c0.043-0.291,0.122-0.556,0.234-0.794c-0.147-0.059-0.289-0.142-0.428-0.249
		c-0.12-0.093-0.247-0.216-0.379-0.369c-0.134-0.152-0.254-0.343-0.364-0.571c-0.173-0.36-0.262-0.731-0.267-1.113
		c-0.004-0.381,0.063-0.746,0.204-1.095c0.141-0.349,0.347-0.669,0.618-0.961c0.27-0.293,0.594-0.529,0.972-0.71
		c0.378-0.182,0.766-0.286,1.163-0.315s0.776,0.012,1.136,0.12c0.36,0.108,0.688,0.284,0.982,0.526s0.528,0.543,0.701,0.904
		c0.109,0.229,0.181,0.443,0.212,0.644c0.032,0.202,0.046,0.379,0.044,0.531c-0.003,0.174-0.023,0.335-0.061,0.483
		c0.248,0.065,0.498,0.172,0.754,0.32c0.212,0.125,0.436,0.299,0.671,0.521c0.237,0.222,0.441,0.513,0.614,0.874
		c0.215,0.448,0.327,0.9,0.334,1.355C658.005,281.84,657.927,282.275,657.764,282.688L657.764,282.688z M647.329,285.144
		c-0.06,0.375-0.131,0.729-0.216,1.062c-0.199,0.781-0.47,1.536-0.813,2.266l-3.318,1.228c0.132-0.289,0.265-0.607,0.395-0.957
		c0.107-0.299,0.216-0.646,0.324-1.04c0.109-0.394,0.199-0.817,0.271-1.27c-0.441,0.07-0.869,0.065-1.284-0.015
		c-0.414-0.081-0.796-0.223-1.147-0.426c-0.35-0.203-0.658-0.467-0.926-0.795c-0.267-0.328-0.477-0.701-0.633-1.122
		c-0.176-0.475-0.255-0.956-0.236-1.44c0.018-0.484,0.121-0.941,0.312-1.37c0.189-0.429,0.461-0.81,0.815-1.144
		c0.354-0.333,0.779-0.592,1.272-0.775c0.512-0.189,1.021-0.276,1.524-0.26c0.506,0.015,0.98,0.126,1.424,0.331
		c0.445,0.205,0.84,0.492,1.186,0.863c0.345,0.371,0.614,0.817,0.807,1.338c0.143,0.384,0.238,0.777,0.288,1.179
		c0.051,0.403,0.07,0.801,0.061,1.194C647.422,284.385,647.388,284.77,647.329,285.144L647.329,285.144z M635.133,292.054
		l-1.596-5.732l-1.679-1.127l1.449-2.755l2.253-0.627l2.614,9.395L635.133,292.054L635.133,292.054z M629.041,289.228
		c-0.048,0.229-0.137,0.44-0.267,0.635c-0.129,0.195-0.293,0.36-0.489,0.495c-0.196,0.134-0.415,0.225-0.653,0.273
		c-0.249,0.05-0.487,0.051-0.716,0.002c-0.228-0.048-0.439-0.137-0.635-0.267c-0.195-0.129-0.359-0.291-0.492-0.482
		c-0.134-0.192-0.226-0.412-0.275-0.661c-0.049-0.238-0.049-0.474-0.002-0.708c0.048-0.233,0.136-0.447,0.266-0.642
		c0.13-0.196,0.291-0.359,0.482-0.493s0.412-0.225,0.66-0.275c0.238-0.048,0.476-0.049,0.709-0.001
		c0.232,0.047,0.447,0.136,0.643,0.265c0.195,0.13,0.359,0.293,0.493,0.49c0.135,0.196,0.226,0.414,0.274,0.653
		C629.089,288.761,629.09,289,629.041,289.228L629.041,289.228z M620.371,294.977l-3.194,0.376l-0.84-7.145l-1.786,0.21
		l-0.299-2.541l6.768-0.796l0.298,2.542l-1.786,0.21L620.371,294.977L620.371,294.977z M611.524,294.193
		c-0.125,0.38-0.327,0.713-0.606,0.999c-0.279,0.287-0.641,0.517-1.083,0.691c-0.443,0.175-0.973,0.271-1.586,0.29
		c-0.37,0.011-0.715,0.004-1.032-0.02c-0.317-0.025-0.6-0.058-0.844-0.099c-0.284-0.04-0.544-0.091-0.779-0.152l-0.089-2.923
		c0.216,0.062,0.442,0.11,0.677,0.141c0.196,0.043,0.42,0.075,0.669,0.096c0.249,0.022,0.5,0.029,0.754,0.022
		c0.448-0.014,0.667-0.186,0.657-0.518c-0.004-0.126-0.076-0.254-0.217-0.381c-0.14-0.128-0.316-0.269-0.531-0.423
		c-0.215-0.153-0.443-0.325-0.688-0.513c-0.245-0.187-0.476-0.404-0.692-0.651c-0.218-0.247-0.398-0.527-0.545-0.839
		c-0.146-0.313-0.225-0.674-0.237-1.083c-0.014-0.458,0.057-0.865,0.212-1.22c0.155-0.356,0.376-0.656,0.66-0.899
		c0.286-0.242,0.624-0.429,1.015-0.564c0.391-0.133,0.811-0.208,1.259-0.221c0.233-0.006,0.468-0.001,0.702,0.016
		c0.234,0.017,0.445,0.033,0.63,0.047c0.216,0.022,0.426,0.045,0.632,0.068l0.082,2.732c-0.078-0.007-0.166-0.014-0.264-0.021
		c-0.078-0.007-0.167-0.015-0.264-0.021c-0.098-0.007-0.2-0.009-0.308-0.006c-0.059,0.001-0.132,0.006-0.219,0.014
		c-0.088,0.008-0.17,0.022-0.248,0.044c-0.077,0.021-0.144,0.058-0.201,0.108c-0.057,0.05-0.084,0.119-0.082,0.208
		c0.003,0.078,0.071,0.173,0.207,0.286c0.135,0.113,0.3,0.245,0.495,0.395c0.194,0.15,0.409,0.324,0.644,0.521
		c0.235,0.197,0.452,0.425,0.65,0.683c0.197,0.257,0.367,0.55,0.509,0.876c0.142,0.327,0.219,0.696,0.23,1.105
		C611.706,293.411,611.648,293.814,611.524,294.193L611.524,294.193z M601.825,288.761l-2.628-0.146l-0.061,1.081l2.584,0.143
		l-0.135,2.423l-2.584-0.144l-0.062,1.125l2.729,0.152l-0.142,2.554l-5.839-0.325l0.542-9.736l5.736,0.319L601.825,288.761
		L601.825,288.761z M589.097,129.433c0.373-1.045,0.984-2.002,1.834-2.875c0.849-0.871,1.857-1.623,3.027-2.256
		c1.169-0.63,2.33-1.026,3.484-1.189c1.151-0.16,2.219-0.053,3.202,0.322c0.981,0.377,1.738,1.088,2.274,2.135
		c0.47,1.05,0.535,2.097,0.192,3.139c-0.342,1.043-0.954,2.002-1.834,2.875c-0.881,0.873-1.921,1.596-3.124,2.164
		c-1.202,0.571-2.397,0.92-3.582,1.053c-1.186,0.132-2.269,0.023-3.249-0.32c-0.982-0.344-1.675-1.01-2.082-2
		C588.77,131.493,588.723,130.476,589.097,129.433L589.097,129.433z M586.753,184.179c0.525,0,0.951,0.427,0.951,0.953
		c0,0.315-0.155,0.593-0.392,0.767l4.481,5.673v-5.546c-0.513-0.014-0.925-0.434-0.925-0.95c0-0.524,0.426-0.95,0.952-0.95
		c0.524,0,0.951,0.426,0.951,0.95c0,0.354-0.195,0.661-0.481,0.823l2.936,5.46l1.795-5.343c-0.352-0.139-0.603-0.482-0.603-0.884
		c0-0.526,0.427-0.953,0.952-0.953c0.526,0,0.953,0.427,0.953,0.953c0,0.402-0.25,0.745-0.604,0.884l1.798,5.343l2.9-5.394
		c-0.297-0.161-0.5-0.472-0.5-0.833c0-0.526,0.425-0.953,0.951-0.953s0.952,0.427,0.952,0.953c0,0.498-0.384,0.903-0.872,0.944
		v5.497l4.482-5.673c-0.237-0.173-0.393-0.451-0.393-0.767c0-0.526,0.425-0.953,0.952-0.953c0.525,0,0.951,0.427,0.951,0.953
		c0,0.525-0.426,0.952-0.951,0.952c-0.103,0-0.198-0.019-0.29-0.05l-2.807,8.144l-0.765,2.222h-6.759h-6.758l-0.766-2.222
		l-2.804-8.144c-0.093,0.031-0.189,0.05-0.291,0.05c-0.527,0-0.951-0.427-0.951-0.952
		C585.802,184.606,586.226,184.179,586.753,184.179L586.753,184.179z M715.166,228.667c-2.988,2.091-6.02,3.96-9.086,5.609
		c-1.652,4.942-3.771,9.582-6.35,13.919c-2.583,4.335-6.18,7.833-10.795,10.493c-3.959,2.266-7.629,3.614-11.008,4.045
		c-3.382,0.431-6.328,0.236-8.846-0.58c-2.514-0.82-4.556-2.156-6.121-4.01c-1.565-1.856-2.511-3.937-2.839-6.244
		c-0.327-2.309,0.015-4.691,1.024-7.148c1.011-2.46,2.862-4.798,5.554-7.016c0.875-0.707,1.803-1.352,2.788-1.941
		c0.986-0.588,2.014-1.204,3.077-1.856c-1.886-2.116-3.168-4.788-3.849-8.02c-1.883,2.666-3.899,5.192-6.063,7.567
		c-2.733,3-5.521,5.576-8.36,7.73c-2.842,2.154-5.276,3.416-7.302,3.781c-2.114,0.385-4.11,0.429-5.983,0.132
		c-1.876-0.298-3.444-1.036-4.704-2.219c-1.263-1.182-2.103-2.805-2.523-4.868c-0.42-2.062-0.231-4.669,0.562-7.817
		c0.658-2.394,1.571-5.133,2.743-8.213c1.169-3.08,2.156-5.921,2.959-8.522c0.802-2.604,1.168-4.719,1.102-6.346
		c-0.068-1.625-1.019-2.227-2.853-1.803c-1.484,0.358-3.197,1.944-5.146,4.756c-1.948,2.811-3.902,6.216-5.861,10.211
		c-1.961,3.998-3.75,8.192-5.365,12.582c-1.615,4.388-2.833,8.343-3.65,11.857c-0.53,2.099-1.01,3.596-1.437,4.495
		c-0.431,0.898-1.085,1.426-1.966,1.586l-3.305,0.6c-2.116,0.382-3.654,0.3-4.621-0.255c-0.964-0.553-1.278-1.904-0.941-4.062
		c0.339-2.154,0.655-4.168,0.951-6.044c0.013-0.08,0.028-0.163,0.041-0.243c-0.918,1.118-1.855,2.216-2.834,3.277
		c-2.778,3.007-5.565,5.583-8.361,7.73c-2.798,2.146-5.253,3.41-7.368,3.793c-2.028,0.369-3.933,0.396-5.719,0.083
		c-1.785-0.312-3.267-1.069-4.44-2.268c-1.173-1.197-1.924-2.835-2.257-4.916c-0.331-2.078-0.1-4.691,0.694-7.84
		s1.487-5.981,2.076-8.502c0.59-2.517,1.167-4.855,1.732-7.003c0.565-2.152,1.109-4.162,1.637-6.033
		c0.524-1.871,1.033-3.715,1.521-5.535c0.489-1.815,0.977-3.27,1.461-4.359c0.486-1.089,1.055-1.968,1.709-2.632
		c0.651-0.665,1.442-1.194,2.373-1.591c0.929-0.395,2.074-0.855,3.438-1.375c1.377-0.431,2.674-0.804,3.894-1.117
		c1.217-0.311,2.229-0.381,3.034-0.21c0.804,0.175,1.305,0.675,1.501,1.505c0.196,0.83-0.004,2.116-0.596,3.862
		c-0.578,1.835-1.246,3.798-2.003,5.894c-0.759,2.096-1.493,4.185-2.207,6.271c-0.714,2.09-1.418,4.104-2.111,6.052
		c-0.694,1.947-1.317,3.652-1.87,5.118c-0.538,1.554-1.036,3.078-1.491,4.571c-0.459,1.496-0.785,2.829-0.981,4.001
		c-0.196,1.174-0.122,2.094,0.228,2.759c0.347,0.664,1.052,0.901,2.108,0.708c1.673-0.303,3.423-1.074,5.245-2.317
		c1.823-1.239,3.612-2.792,5.368-4.661c1.755-1.865,3.382-3.933,4.88-6.21c1.255-1.901,2.305-3.865,3.155-5.887
		c0.403-1.587,0.794-3.1,1.169-4.522c0.564-2.151,1.132-4.165,1.701-6.045c0.568-1.878,1.1-3.726,1.589-5.545
		c0.489-1.816,1.063-3.285,1.726-4.408c0.661-1.121,1.424-2.054,2.291-2.806c0.864-0.748,1.827-1.333,2.89-1.753
		c1.062-0.419,2.324-0.853,3.792-1.302c2.26-0.592,3.56-0.326,3.899,0.793c0.34,1.125,0.105,3.215-0.705,6.274
		c2.124-2.844,4.372-5.253,6.744-7.232c2.372-1.978,4.923-3.216,7.655-3.71c3.349-0.608,6.023-0.411,8.026,0.591
		c2.004,1.003,3.35,2.65,4.037,4.935c0.688,2.287,0.729,5.148,0.122,8.58c-0.604,3.434-1.843,7.275-3.71,11.528
		c-0.643,1.483-1.293,3.034-1.955,4.655c-0.661,1.623-1.124,3.096-1.383,4.417c-0.263,1.322-0.277,2.372-0.044,3.149
		c0.231,0.777,0.877,1.069,1.935,0.877c1.673-0.303,3.423-1.077,5.246-2.319c1.823-1.24,3.611-2.792,5.367-4.66
		c1.754-1.864,3.383-3.935,4.881-6.208c1.279-1.941,2.347-3.945,3.206-6.01c0.59-2.059,1.411-4.176,2.47-6.355
		c2.004-4.001,4.42-7.492,7.249-10.462c2.828-2.972,5.82-5.29,8.979-6.955c3.156-1.665,6.309-2.601,9.458-2.809
		c3.148-0.207,6.079,0.397,8.796,1.819c0.438-1.082,0.87-1.979,1.286-2.692c0.417-0.711,0.924-1.305,1.521-1.777
		c0.596-0.472,1.315-0.898,2.156-1.279c0.841-0.378,1.861-0.769,3.065-1.171c1.376-0.43,2.675-0.803,3.893-1.115
		s2.206-0.378,2.97-0.198c0.761,0.181,1.26,0.682,1.501,1.503c0.238,0.822,0.062,2.104-0.53,3.851
		c-0.577,1.834-1.224,3.795-1.937,5.881c-0.713,2.088-1.45,4.177-2.207,6.272c-0.759,2.096-1.484,4.115-2.178,6.061
		c-0.694,1.949-1.362,3.66-2.003,5.143c-0.938,2.355-1.781,4.853-2.532,7.491c-0.748,2.642-1.51,5.349-2.28,8.129
		c4.424-2.716,8.546-5.965,12.363-9.753c0.09-0.089,0.176-0.184,0.265-0.274c2.248-9.082,3.448-18.576,3.448-28.353
		c0-22.463-6.299-43.455-17.222-61.31c-0.343,0.35-0.703,0.696-1.087,1.037c-0.885,0.778-1.803,1.435-2.756,1.964
		c-0.954,0.532-1.837,0.809-2.649,0.834l-12.945,0.408c-1.494,2.24-3.001,4.557-4.522,6.952c-1.521,2.396-2.877,4.552-4.068,6.468
		c-1.311,2.104-2.461,4.349-3.449,6.727c-0.99,2.379-1.75,4.579-2.279,6.599c-0.532,2.021-0.82,3.767-0.867,5.238
		c-0.048,1.473,0.216,2.388,0.79,2.746c0.767,0.476,1.757,0.57,2.968,0.281c1.212-0.287,2.536-0.909,3.979-1.863
		c1.439-0.953,2.935-2.221,4.48-3.803c1.547-1.583,3.036-3.461,4.47-5.635c0.594-1.02,1.229-1.696,1.908-2.032
		c0.677-0.335,1.238-0.399,1.684-0.195c0.444,0.207,0.693,0.669,0.748,1.386c0.054,0.718-0.215,1.62-0.806,2.703
		c-1.421,2.612-3.051,5.025-4.889,7.243c-1.84,2.217-3.783,4.143-5.827,5.771c-2.048,1.631-4.149,2.935-6.309,3.909
		c-2.162,0.977-4.272,1.496-6.336,1.562c-2.189,0.068-3.98-0.641-5.374-2.132c-1.392-1.489-2.09-3.737-2.09-6.74
		c0-0.474,0.027-0.974,0.066-1.486c-1.491,1.34-3.055,2.53-4.695,3.557c-2.059,1.286-4.139,2.306-6.242,3.06
		c-2.104,0.757-4.06,1.288-5.865,1.593c-2.564,2.022-5.756,3.094-9.569,3.214c-2.313,0.074-4.285-0.413-5.915-1.456
		c-1.63-1.043-2.785-2.462-3.469-4.258c-0.294-0.773-0.479-1.606-0.566-2.492c-0.933,0.922-1.897,1.807-2.901,2.649
		c-2.136,1.79-4.31,3.281-6.525,4.479c-2.216,1.196-4.23,1.824-6.044,1.881c-3.002,0.095-4.764-1.164-5.283-3.777
		c-0.521-2.612,0.367-6.178,2.666-10.695c1.006-1.847,2.014-3.616,3.025-5.308c1.01-1.69,1.993-3.27,2.949-4.74
		c-1.594,1.116-3.274,1.888-5.044,2.319c-1.771,0.432-3.412,0.484-4.925,0.155c-0.824,1.716-1.776,3.25-2.859,4.598
		c-0.083,0.101-0.164,0.194-0.246,0.289c-0.997,1.886-2.411,3.856-4.253,5.911c-1.936,2.159-4.018,4.133-6.244,5.925
		c-2.23,1.792-4.42,3.284-6.572,4.48c-2.155,1.195-3.98,1.815-5.481,1.863c-1.439,0.045-2.761-0.132-3.961-0.532
		c-1.203-0.399-2.146-1.073-2.834-2.023c-0.688-0.948-1.039-2.158-1.054-3.628c-0.016-1.47,0.414-3.252,1.286-5.346
		c0.874-2.093,1.643-3.98,2.31-5.66c0.666-1.679,1.307-3.234,1.919-4.662s1.195-2.761,1.751-3.999
		c0.555-1.238,1.097-2.461,1.621-3.667c0.526-1.205,1.012-2.159,1.46-2.862c0.447-0.701,0.93-1.25,1.45-1.643
		c0.519-0.39,1.12-0.675,1.804-0.854c0.683-0.177,1.522-0.376,2.517-0.597c0.995-0.156,1.931-0.278,2.805-0.371
		c0.874-0.089,1.58-0.034,2.118,0.168c0.538,0.204,0.833,0.6,0.884,1.193c0.049,0.593-0.221,1.463-0.811,2.607
		c-0.588,1.208-1.252,2.498-1.99,3.865c-0.74,1.37-1.462,2.739-2.171,4.107c-0.708,1.369-1.402,2.689-2.081,3.963
		c-0.681,1.273-1.286,2.387-1.819,3.343c-0.531,1.019-1.032,2.021-1.502,3.006s-0.832,1.874-1.089,2.662
		c-0.257,0.792-0.3,1.435-0.126,1.93c0.171,0.496,0.633,0.732,1.383,0.708c1.188-0.037,2.477-0.391,3.863-1.061
		c1.388-0.668,2.783-1.558,4.188-2.667c1.404-1.109,2.742-2.371,4.012-3.789c1.026-1.145,1.921-2.35,2.698-3.61
		c0.151-0.287,0.328-0.587,0.538-0.906c0.007-0.011,0.014-0.022,0.021-0.033c0.149-0.256,0.302-0.491,0.456-0.706
		c0.31-0.486,0.613-0.985,0.906-1.512c0.445-0.795,0.873-1.607,1.285-2.434c-1.032-0.968-1.649-2.14-1.848-3.51
		c-0.199-1.37-0.136-2.796,0.193-4.278c0.328-1.481,0.894-2.923,1.695-4.327c0.8-1.401,1.715-2.619,2.748-3.655
		c1.031-1.033,2.117-1.771,3.263-2.215c1.145-0.442,2.223-0.461,3.238-0.054c0.76,0.288,1.212,0.744,1.357,1.363
		c0.144,0.623,0.15,1.326,0.02,2.114c-0.131,0.786-0.371,1.623-0.719,2.511c-0.348,0.888-0.664,1.775-0.949,2.659
		c1.326,0.333,2.47,0.438,3.438,0.315c0.967-0.125,1.818-0.418,2.556-0.88c0.736-0.46,1.375-1.029,1.917-1.703
		c0.543-0.674,1.051-1.395,1.527-2.161c0.54-0.768,1.2-1.102,1.987-1.001c0.786,0.102,1.486,0.47,2.102,1.106
		c0.614,0.638,1.046,1.454,1.297,2.448s0.111,2.001-0.42,3.018c-0.062,0.065-0.09,0.129-0.088,0.19
		c-0.355,0.638-0.902,1.687-1.638,3.151c-0.737,1.463-1.518,2.991-2.344,4.58c-0.827,1.592-1.592,3.119-2.296,4.58
		c-0.706,1.463-1.205,2.514-1.497,3.146c-0.47,1.017-0.938,2.034-1.407,3.05c-0.469,1.017-0.83,1.92-1.087,2.71
		c-0.258,0.792-0.316,1.419-0.176,1.883c0.14,0.466,0.616,0.686,1.43,0.66c1.187-0.038,2.477-0.391,3.864-1.061
		c1.387-0.668,2.781-1.559,4.188-2.667c1.404-1.109,2.725-2.372,3.965-3.789c0.615-0.704,1.187-1.429,1.716-2.177
		c0.429-0.769,0.915-1.547,1.474-2.337c0.002-0.002,0.004-0.005,0.006-0.008c0.273-0.47,0.553-0.867,0.839-1.197
		c1.6-2.288,2.951-4.239,4.05-5.849c1.285-1.888,2.379-3.425,3.281-4.613c0.901-1.185,1.702-2.087,2.402-2.706
		c0.7-0.615,1.438-1.06,2.212-1.337c0.773-0.273,1.66-0.427,2.661-0.459c1-0.032,2.283-0.072,3.846-0.121
		c1.439-0.046,2.582-0.037,3.429,0.032c0.848,0.067,1.478,0.205,1.891,0.41c0.413,0.208,0.688,0.48,0.824,0.818
		c0.136,0.341,0.212,0.73,0.226,1.168c0.029,0.938-0.172,1.539-0.602,1.803c-0.43,0.264-0.892,0.498-1.386,0.702
		c-0.495,0.202-0.92,0.56-1.28,1.072c-0.36,0.514-0.455,1.486-0.284,2.921c0.411,3.118,0.506,6.102,0.283,8.958
		c-0.223,2.855-0.798,5.487-1.722,7.895c1.305-0.291,2.636-0.772,3.992-1.441c1.355-0.666,2.676-1.461,3.962-2.379
		c1.286-0.917,2.473-1.955,3.563-3.117c1.044-1.112,1.91-2.278,2.605-3.495c0.089-0.259,0.17-0.511,0.264-0.775
		c1.609-4.525,4.353-9.825,8.231-15.895c0.655-1.021,1.385-2.202,2.188-3.543c0.803-1.339,1.682-2.712,2.64-4.122l-8.724,0.276
		c-0.751,0.024-1.15-0.182-1.193-0.619c-0.047-0.435,0.111-0.943,0.468-1.518c0.357-0.574,0.888-1.107,1.593-1.599
		c0.703-0.491,1.462-0.781,2.273-0.87c2.367-0.325,4.837-0.935,7.407-1.83c2.568-0.895,4.655-1.713,6.26-2.452
		c1.357-0.606,2.763-1.198,4.217-1.777c1.452-0.577,2.661-0.93,3.629-1.054c0.966-0.125,1.519,0.062,1.661,0.559
		c0.141,0.496-0.455,1.516-1.782,3.06l-0.359,0.481c3.175-0.538,6.118-1.023,8.827-1.453c0.912-0.144,1.736-0.284,2.488-0.42
		c-21.158-31.201-56.907-51.704-97.446-51.704c-20.77,0-40.278,5.389-57.216,14.834c2.621-0.094,5.1-0.069,7.418,0.089
		c5.172,0.353,9.792,0.961,13.863,1.82c4.068,0.861,7.71,1.755,10.923,2.687c3.21,0.931,6.197,1.545,8.96,1.845
		c2.761,0.299,5.398,0.066,7.912-0.702c2.512-0.766,5.103-2.483,7.771-5.149c1.666-1.684,2.999-2.394,3.997-2.125
		c0.996,0.271,1.649,1.132,1.952,2.583c0.305,1.454,0.233,3.306-0.211,5.555c-0.445,2.251-1.274,4.556-2.491,6.916
		c-1.215,2.36-2.821,4.606-4.819,6.733c-1.997,2.128-4.354,3.75-7.07,4.869c-3.229,1.307-6.288,1.744-9.184,1.322
		c-2.896-0.424-5.782-1.302-8.663-2.628c-2.879-1.331-5.79-2.914-8.729-4.756c-2.941-1.844-6.091-3.505-9.447-4.992
		c-3.359-1.484-6.964-2.596-10.813-3.335c-3.852-0.738-8.088-0.733-12.708,0.013c-3.25,0.62-6.033,1.697-8.349,3.232
		c-0.399,0.264-0.778,0.538-1.147,0.815c-1.046,0.928-2.081,1.868-3.093,2.833c-0.461,0.524-0.887,1.063-1.271,1.622
		c-1.356,1.978-2.238,4.028-2.645,6.149c-0.405,2.12-0.323,4.03,0.246,5.734c0.578,1.959,1.721,3.407,3.428,4.342
		s3.615,1.498,5.729,1.688c2.113,0.191,4.301,0.015,6.564-0.53c2.26-0.542,4.279-1.314,6.054-2.319
		c1.385-2.451,2.818-4.734,4.3-6.845c1.48-2.11,2.993-3.921,4.538-5.434c1.542-1.51,3.159-2.722,4.852-3.636
		c1.69-0.914,3.441-1.354,5.247-1.327c2.237,0.015,3.187,0.781,2.847,2.297c-0.339,1.516-1.803,3.519-4.389,6.008
		c-2.337,2.313-4.614,5.781-6.832,10.409c-2.222,4.631-4.443,9.816-6.67,15.564c2.427,0.613,4.79,1.203,7.089,1.776
		c2.295,0.573,4.5,0.935,6.613,1.082c2.112,0.148,4.086,0.021,5.924-0.382c1.835-0.4,3.59-1.36,5.263-2.876
		c1.335-1.245,2.374-1.752,3.112-1.518c0.737,0.235,1.168,0.931,1.292,2.088c0.121,1.157-0.069,2.603-0.572,4.341
		c-0.506,1.737-1.29,3.48-2.351,5.234c-1.062,1.755-2.366,3.388-3.909,4.896c-1.545,1.513-3.338,2.602-5.38,3.267
		c-1.62,0.483-3.271,0.599-4.957,0.35c-1.685-0.247-3.421-0.729-5.206-1.448c-1.786-0.718-3.619-1.563-5.498-2.536
		c-1.881-0.972-3.782-1.9-5.7-2.788c-1.187,3.307-2.374,6.527-3.565,9.661c-1.19,3.135-2.387,6.139-3.586,9.017
		c-1.842,4.358-3.981,8.102-6.419,11.232c-2.438,3.129-5.07,5.578-7.896,7.346c-2.827,1.766-5.738,2.826-8.737,3.179
		c-3,0.352-5.938-0.116-8.817-1.399c-2.531-1.124-4.493-2.676-5.889-4.652c-1.396-1.978-2.342-4.034-2.838-6.167
		c-0.5-2.136-0.673-4.215-0.521-6.241c0.149-2.023,0.484-3.648,1.007-4.87c0.521-1.22,1.121-1.884,1.808-1.994
		c0.685-0.106,1.312,0.65,1.878,2.264c0.572,1.789,1.475,3.159,2.71,4.108c1.234,0.95,2.585,1.552,4.057,1.808
		c1.471,0.255,3.016,0.185,4.639-0.212c1.62-0.394,3.104-1.084,4.449-2.076c1.178-0.812,2.308-1.834,3.386-3.075
		c1.079-1.238,2.132-2.582,3.163-4.035c1.028-1.451,1.992-2.942,2.891-4.478c0.896-1.531,1.711-2.999,2.441-4.398l3.997-8.255
		c-2.673-0.173-5.114,0.12-7.327,0.877c-2.126,0.756-3.672,0.868-4.633,0.339c-0.965-0.528-1.397-1.331-1.303-2.41
		c0.096-1.078,0.681-2.257,1.759-3.539c1.077-1.281,2.508-2.292,4.291-3.038c1.954-0.75,3.914-1.287,5.885-1.606
		c1.967-0.319,3.897-0.464,5.791-0.439c0.48-1.133,0.961-2.246,1.443-3.335c0.481-1.091,1.005-2.203,1.57-3.34
		c-2.468,0.853-4.969,1.341-7.501,1.463c-2.534,0.125-4.929-0.103-7.181-0.676c-2.257-0.574-4.284-1.456-6.084-2.646
		c-1.801-1.19-3.159-2.63-4.071-4.324c-0.788-1.352-1.39-2.774-1.827-4.26c-14.575,19.59-23.203,43.868-23.203,70.163
		c0,26.202,8.568,50.4,23.051,69.954c0.573-0.859,1.121-1.813,1.646-2.866c1.075-2.129,2.162-4.698,3.256-7.708
		c1.094-3.009,2.177-6.215,3.25-9.625c1.072-3.406,2.179-6.947,3.324-10.621c1.142-3.673,2.29-7.31,3.444-10.913
		c-2.542,1.103-5.134,1.865-7.773,2.287c-2.642,0.424-5.379,0.441-8.211,0.05c-2.312-0.319-4.238-1.133-5.78-2.442
		c-1.544-1.309-2.764-2.791-3.663-4.45c-0.9-1.658-1.476-3.345-1.727-5.062c-0.251-1.716-0.248-3.196,0.008-4.438
		c0.257-1.243,0.754-2.083,1.495-2.519c0.739-0.437,1.651-0.187,2.739,0.75c1.507,1.313,3.321,2.236,5.444,2.765
		c2.122,0.531,4.453,0.738,6.993,0.622c2.539-0.115,5.222-0.506,8.046-1.176c2.824-0.667,5.687-1.579,8.586-2.734
		c5.765-12.529,11.37-17.659,16.816-15.387c1.012,0.438,1.74,1.17,2.184,2.2c0.442,1.031,0.587,2.271,0.434,3.717
		c-0.154,1.447-0.688,3.042-1.602,4.782c-0.915,1.741-2.223,3.54-3.923,5.395c-1.763,1.938-3.703,3.902-5.823,5.891
		c-1.104,2.938-2.161,6.087-3.166,9.447c-1.007,3.363-2.02,6.798-3.041,10.307c0.33,0.756,0.699,1.541,1.111,2.357
		c0.411,0.816,0.857,1.627,1.342,2.434c4.104-1.915,8.041-4.699,11.818-8.356c3.774-3.656,7.04-7.548,9.798-11.677
		c2.755-4.128,4.828-8.193,6.216-12.195c1.388-4,1.709-7.298,0.965-9.892c-0.424-1.399-0.355-2.431,0.204-3.099
		c0.561-0.665,1.355-0.964,2.389-0.896c1.033,0.068,2.22,0.442,3.562,1.123c1.341,0.68,2.581,1.668,3.72,2.962
		c1.139,1.295,2.046,2.878,2.722,4.752c0.675,1.874,0.925,3.956,0.749,6.246c-0.277,3.108-1.621,6.41-4.031,9.902
		c-2.411,3.495-5.456,6.898-9.136,10.211c-3.679,3.315-7.762,6.376-12.244,9.186c-4.483,2.811-8.904,5.046-13.264,6.705
		c2.155,2.752,4.678,5.526,7.57,8.316c2.891,2.793,5.958,5.413,9.202,7.859c3.242,2.448,6.584,4.699,10.026,6.753
		c3.439,2.053,6.794,3.754,10.06,5.104c3.265,1.348,6.357,2.265,9.277,2.753c2.92,0.485,5.539,0.413,7.857-0.218
		c1.613-0.455,2.688-0.357,3.221,0.296c0.533,0.651,0.573,1.56,0.124,2.721c-0.451,1.162-1.301,2.473-2.548,3.934
		c-1.249,1.459-2.825,2.786-4.732,3.978c-1.908,1.191-4.114,2.098-6.615,2.721c-2.503,0.621-5.181,0.665-8.033,0.133
		c-3.141-0.491-6.181-1.545-9.118-3.159c-2.94-1.617-5.782-3.576-8.529-5.875c-2.747-2.302-5.366-4.858-7.859-7.672
		s-4.796-5.691-6.905-8.633c-2.111-2.941-4.017-5.858-5.717-8.751c-1.701-2.892-3.169-5.563-4.403-8.012l-2.253,0.329
		c-1.385,5.023-2.812,9.744-4.285,14.158c-1.474,4.417-3.038,8.205-4.693,11.369c-0.715,1.361-1.481,2.618-2.288,3.792
		c21.492,23.228,52.232,37.775,86.374,37.775c50.783,0,94.051-32.172,110.535-77.247
		C717.015,227.331,716.101,228.014,715.166,228.667L715.166,228.667z"/>
</g>
<line opacity="0.5" fill="none" stroke="#58606F" stroke-width="0.5" stroke-miterlimit="10" x1="32.478" y1="389" x2="870.884" y2="389"/>
<text transform="matrix(1 0 0 1 573.1055 347.8564)" fill="#58606F" font-family="'Karla-Bold'" font-size="17">Alternate</text>
<text transform="matrix(1 0 0 1 273.1484 347.8564)" fill="#58606F" font-family="'Karla-Bold'" font-size="17">Primary</text>
<text transform="matrix(1 0 0 1 65.7456 630.6533)" fill="#58606F" font-family="'Karla-Bold'" font-size="17">Typefaces</text>
<text transform="matrix(1 0 0 1 65.7456 743.7891)" fill="#58606F" font-family="'Karla-Regular'" font-size="12">Raleway</text>
<text transform="matrix(1 0 0 1 518.1875 744.2617)" fill="#58606F" font-family="'Karla-Regular'" font-size="12">Phosphate</text>
<text transform="matrix(1 0 0 1 65.7456 672.1758)"><tspan x="0" y="0" font-family="'Raleway-Regular'" font-size="20">abcdefghijklmnopqrstuvwxyz </tspan><tspan x="0" y="24" font-family="'Raleway-Regular'" font-size="20">abcdefghijklmnopqrstuvwxyz</tspan><tspan x="0" y="48" font-family="'Raleway-Regular'" font-size="20">1234567890</tspan></text>
<text transform="matrix(1 0 0 1 518.1875 672.1758)"><tspan x="0" y="0" font-family="'Phosphate-Solid'" font-size="20">abcdefghijklmnopqrstuvwxyz</tspan><tspan x="0" y="24" font-family="'Phosphate-Solid'" font-size="20">1234567890</tspan></text>
<text transform="matrix(1 0 0 1 65.7456 435)" fill="#58606F" font-family="'Karla-Bold'" font-size="17">Colours</text>
<text transform="matrix(1 0 0 1 168.625 506.2803)"><tspan x="0" y="0" fill="#58606F" font-family="'Karla-Bold'" font-size="14.9603">CMYK: </tspan><tspan x="49.204" y="0" fill="#58606F" font-family="'Karla-Regular'" font-size="14.9603">0,0,0,90</tspan><tspan x="0" y="17.952" fill="#58606F" font-family="'Karla-Bold'" font-size="14.9603">RBG: </tspan><tspan x="37.28" y="17.952" fill="#58606F" font-family="'Karla-Regular'" font-size="14.9603">64,64,65</tspan></text>
<text transform="matrix(1 0 0 1 452.749 506.2803)"><tspan x="0" y="0" fill="#58606F" font-family="'Karla-Bold'" font-size="14.9603">CMYK: </tspan><tspan x="49.204" y="0" fill="#58606F" font-family="'Karla-Regular'" font-size="14.9603">0,0,0,40</tspan><tspan x="-0.366" y="17.952" fill="#58606F" font-family="'Karla-Bold'" font-size="14.9603">RBG: </tspan><tspan x="36.915" y="17.952" fill="#58606F" font-family="'Karla-Regular'" font-size="14.9603">167,169,171</tspan></text>
<text transform="matrix(1 0 0 1 731.373 506.2803)"><tspan x="0" y="0" fill="#58606F" font-family="'Karla-Bold'" font-size="14.9603">CMYK: </tspan><tspan x="49.203" y="0" fill="#58606F" font-family="'Karla-Regular'" font-size="14.9603">100,41,99,0</tspan><tspan x="0" y="17.952" fill="#58606F" font-family="'Karla-Bold'" font-size="14.9603">RBG: </tspan><tspan x="37.279" y="17.952" fill="#58606F" font-family="'Karla-Regular'" font-size="14.9603">64,64,65</tspan></text>
<circle fill="#414042" cx="110.626" cy="506.28" r="44.881"/>
<circle fill="#007948" cx="678.353" cy="506.28" r="44.881"/>
<circle fill="#A7A9AC" cx="396.019" cy="506.28" r="44.881"/>
</svg>
