<?xml version="1.0" encoding="utf-8"?>
<!-- Generator: Adobe Illustrator 16.0.0, SVG Export Plug-In . SVG Version: 6.00 Build 0)  -->
<!DOCTYPE svg PUBLIC "-//W3C//DTD SVG 1.1//EN" "http://www.w3.org/Graphics/SVG/1.1/DTD/svg11.dtd">
<svg version="1.1" id="Layer_1" xmlns="http://www.w3.org/2000/svg" xmlns:xlink="http://www.w3.org/1999/xlink" x="0px" y="0px"
	 width="900px" height="605.969px" viewBox="0 57.608 900 605.969" enable-background="new 0 57.608 900 605.969"
	 xml:space="preserve">
<text transform="matrix(1 0 0 1 65.7456 503.3916)" fill="#58606F" font-family="'Karla-Bold'" font-size="17">Typefaces</text>
<text transform="matrix(1 0 0 1 65.7456 616.5273)" fill="#58606F" font-family="'Karla-Regular'" font-size="12">Raleway</text>
<text transform="matrix(1 0 0 1 518.1875 617)" fill="#58606F" font-family="'Karla-Regular'" font-size="12">Atma- Bold</text>
<text transform="matrix(1 0 0 1 518.1875 544.9141)" font-family="'Atma-Bold'" font-size="20">abcdefghijklmnopqrstuvwxyz </text>
<text transform="matrix(1 0 0 1 518.1875 568.9141)" font-family="'Atma-Bold'" font-size="20">abcdefghijklmnopqrstuvwxyz</text>
<text transform="matrix(1 0 0 1 518.1875 592.9141)" font-family="'Atma-Bold'" font-size="20">1234567890</text>
<text transform="matrix(1 0 0 1 65.7446 544.9141)" font-family="'Raleway-Regular'" font-size="20">abcdefghijklmnopqrstuvwxyz </text>
<text transform="matrix(1 0 0 1 65.7446 568.9141)" font-family="'Raleway-Regular'" font-size="20">abcdefghijklmnopqrstuvwxyz</text>
<text transform="matrix(1 0 0 1 65.7446 592.9141)" font-family="'Raleway-Regular'" font-size="20">1234567890</text>
<text transform="matrix(1 0 0 1 65.7456 125.7383)" fill="#58606F" font-family="'Karla-Bold'" font-size="17">Colours</text>
<text transform="matrix(1 0 0 1 168.625 197.0186)" fill="#58606F" font-family="'Karla-Bold'" font-size="14.9603">CMYK: </text>
<text transform="matrix(1 0 0 1 217.8291 197.0186)" fill="#58606F" font-family="'Karla-Regular'" font-size="14.9603">1, 17, 98, 0</text>
<text transform="matrix(1 0 0 1 168.625 214.9707)" fill="#58606F" font-family="'Karla-Bold'" font-size="14.9603">RBG: </text>
<text transform="matrix(1 0 0 1 205.9048 214.9707)" fill="#58606F" font-family="'Karla-Regular'" font-size="14.9603">255, 208, 12</text>
<text transform="matrix(1 0 0 1 452.749 197.0186)" fill="#58606F" font-family="'Karla-Bold'" font-size="14.9603">CMYK: </text>
<text transform="matrix(1 0 0 1 501.9531 197.0186)" fill="#58606F" font-family="'Karla-Regular'" font-size="14.9603">0, 88, 74, 0</text>
<text transform="matrix(1 0 0 1 452.3828 214.9707)" fill="#58606F" font-family="'Karla-Bold'" font-size="14.9603">RBG: </text>
<text transform="matrix(1 0 0 1 489.6641 214.9707)" fill="#58606F" font-family="'Karla-Regular'" font-size="14.9603">245, 68, 68</text>
<text transform="matrix(1 0 0 1 731.373 197.0186)" fill="#58606F" font-family="'Karla-Bold'" font-size="14.9603">CMYK: </text>
<text transform="matrix(1 0 0 1 780.5762 197.0186)" fill="#58606F" font-family="'Karla-Regular'" font-size="14.9603">100, 84, 22, 6</text>
<text transform="matrix(1 0 0 1 731.373 214.9707)" fill="#58606F" font-family="'Karla-Bold'" font-size="14.9603">RBG: </text>
<text transform="matrix(1 0 0 1 768.6523 214.9707)" fill="#58606F" font-family="'Karla-Regular'" font-size="14.9603">0, 65, 130</text>
<circle fill="#FFD00C" cx="110.626" cy="197.019" r="44.881"/>
<text transform="matrix(1 0 0 1 168.6245 329.0186)" fill="#58606F" font-family="'Karla-Bold'" font-size="14.9603">CMYK: </text>
<text transform="matrix(1 0 0 1 217.8286 329.0186)" fill="#58606F" font-family="'Karla-Regular'" font-size="14.9603">29, 2, 92, 0</text>
<text transform="matrix(1 0 0 1 168.6245 346.9707)" fill="#58606F" font-family="'Karla-Bold'" font-size="14.9603">RBG: </text>
<text transform="matrix(1 0 0 1 205.9043 346.9707)" fill="#58606F" font-family="'Karla-Regular'" font-size="14.9603">193, 211, 67</text>
<circle fill="#C1D343" cx="110.625" cy="329.019" r="44.881"/>
<text transform="matrix(1 0 0 1 454.0176 329.0186)" fill="#58606F" font-family="'Karla-Bold'" font-size="14.9603">CMYK: </text>
<text transform="matrix(1 0 0 1 503.2227 329.0186)" fill="#58606F" font-family="'Karla-Regular'" font-size="14.9603">70, 85, 4, 0</text>
<text transform="matrix(1 0 0 1 454.0176 346.9707)" fill="#58606F" font-family="'Karla-Bold'" font-size="14.9603">RBG: </text>
<text transform="matrix(1 0 0 1 491.2979 346.9707)" fill="#58606F" font-family="'Karla-Regular'" font-size="14.9603">107, 72, 151</text>
<circle fill="#6B4897" cx="396.019" cy="329.019" r="44.881"/>
<circle fill="#004182" cx="678.354" cy="197.019" r="44.881"/>
<circle fill="#F54444" cx="396.019" cy="197.019" r="44.881"/>
<g id="Ellipse_1">
	<g>
		<circle fill="#FFD00C" cx="-497" cy="228.138" r="76"/>
	</g>
</g>
<g id="Ellipse_1_7_">
	<g>
		<circle fill="#F54444" cx="-311" cy="228.138" r="76"/>
	</g>
</g>
<g id="Ellipse_1_5_">
	<g>
		<circle fill="#004182" cx="-126" cy="228.138" r="76"/>
	</g>
</g>
<g id="Ellipse_1_3_">
	<g>
		<circle fill="#C1D343" cx="-412" cy="537.138" r="76"/>
	</g>
</g>
<g id="Ellipse_1_4_">
	<g>
		<circle fill="#6B4897" cx="-221" cy="537.138" r="76"/>
	</g>
</g>
</svg>
